<?xml version="1.0" standalone="no"?>
<!DOCTYPE svg PUBLIC "-//W3C//DTD SVG 20010904//EN"
 "http://www.w3.org/TR/2001/REC-SVG-20010904/DTD/svg10.dtd">
<svg version="1.0" xmlns="http://www.w3.org/2000/svg"
 width="1024.000000pt" height="1024.000000pt" viewBox="0 0 1024.000000 1024.000000"
 preserveAspectRatio="xMidYMid meet">

<g transform="translate(0.000000,1024.000000) scale(0.100000,-0.100000)"
fill="#000000" stroke="none">
<path d="M0 5120 l0 -5120 5120 0 5120 0 0 5120 0 5120 -5120 0 -5120 0 0
-5120z m4685 2905 c125 -321 240 -727 313 -1099 6 -32 13 -41 37 -48 341 -103
844 -306 1074 -435 125 -70 208 -166 347 -402 49 -84 102 -157 139 -196 54
-56 71 -66 170 -105 147 -58 662 -227 1022 -335 l291 -89 7 -43 c6 -39 2 -51
-46 -133 -28 -50 -55 -93 -59 -95 -5 -3 -13 8 -18 24 -6 16 -22 37 -36 47 -25
16 -190 43 -264 44 l-33 0 47 -87 c57 -105 114 -192 161 -244 l33 -37 -27 -33
c-15 -19 -59 -68 -97 -110 -39 -42 -91 -98 -116 -126 -51 -56 -124 -94 -227
-120 -74 -18 -229 -21 -978 -15 -295 2 -409 -1 -510 -13 -230 -27 -387 -76
-514 -159 -71 -47 -133 -106 -96 -92 40 16 128 46 133 46 2 0 -3 -12 -13 -26
-56 -85 -83 -263 -66 -422 27 -240 126 -428 328 -623 84 -81 240 -206 247
-198 1 2 -5 90 -14 194 -9 105 -15 192 -13 194 5 7 8 2 66 -115 118 -236 167
-433 167 -671 l0 -147 -82 80 c-78 75 -220 194 -232 194 -4 0 -6 -56 -6 -124
0 -197 -39 -372 -118 -531 -53 -109 -53 -108 -79 -9 -45 168 -150 356 -297
531 -75 90 -241 253 -300 296 -28 20 -29 20 -22 1 35 -85 114 -322 142 -424
45 -163 64 -282 64 -403 l0 -97 -87 69 c-155 121 -354 250 -828 531 -507 302
-702 476 -936 834 -41 63 -77 115 -80 115 -11 2 -69 -471 -69 -561 0 -27 -3
-48 -6 -48 -18 0 -149 191 -199 290 -47 94 -101 260 -119 369 -20 121 -21 351
-1 490 19 128 57 287 96 396 15 44 27 80 26 82 -7 6 -231 -183 -473 -401 -48
-43 -54 -46 -50 -25 3 13 10 59 16 102 39 273 187 668 359 957 92 154 246 362
301 407 13 11 13 12 -1 13 -9 0 -134 -32 -279 -70 -144 -39 -265 -69 -267 -66
-12 12 203 305 344 468 160 185 410 409 586 526 37 25 67 50 67 56 0 7 20 86
44 176 132 496 315 850 639 1235 87 104 330 346 339 337 4 -4 28 -61 53 -127z
m884 -552 c-45 -252 -83 -459 -84 -461 -2 -2 -73 11 -159 29 l-156 32 -5 36
c-3 20 -17 86 -32 148 l-26 111 36 62 c64 107 147 212 251 316 103 102 248
214 254 195 2 -6 -33 -217 -79 -468z"/>
<path d="M4469 7412 c-44 -62 -118 -201 -165 -311 -80 -185 -126 -385 -140
-603 l-6 -108 58 26 c63 28 275 107 387 144 l68 22 -6 82 c-9 112 -31 259 -56
373 -23 105 -97 381 -107 400 -5 7 -17 -2 -33 -25z"/>
<path d="M5640 5975 c-96 -7 -209 -16 -250 -20 l-75 -8 108 -53 c122 -61 172
-93 253 -164 128 -112 192 -130 464 -130 163 1 183 2 166 15 -23 17 -110 100
-273 257 l-121 118 -49 -1 c-26 -1 -127 -7 -223 -14z"/>
<path d="M4215 5273 c-184 -133 -252 -189 -345 -282 -258 -261 -393 -547 -416
-883 -3 -54 -4 -98 -1 -98 2 0 101 54 218 120 118 66 217 120 220 120 3 0 2
-26 -3 -57 -22 -132 13 -317 87 -468 60 -123 136 -223 269 -355 l87 -85 -35
70 c-83 171 -124 333 -133 535 -9 200 34 461 107 648 24 61 25 72 12 68 -10
-3 -113 -35 -231 -71 -117 -36 -216 -63 -219 -60 -9 9 75 210 147 350 69 134
193 339 263 432 21 29 35 53 31 52 -4 0 -30 -17 -58 -36z"/>
</g>
</svg>
